<svg xmlns="http://www.w3.org/2000/svg" viewBox="0 0 256 256" aria-label="Wellet W-mark">
  <rect width="256" height="256" rx="48" fill="#608F7C"/>
  <!-- The lowercase 'w' extracted from the Wellet wordmark (viewBox 0 138 150 42).
       The first path draws the 'w' glyph, spanning roughly x=0 to x=47 in the original.
       Translate to center it within 256x256 and scale to fit ~176px height. -->
  <g transform="translate(37.5, 50) scale(3.65) translate(0, -138)">
    <path fill="#FFFFFF" d="M45.5,142c.94.94,1.4,2.08,1.4,3.42,0,.89-.19,1.73-.58,2.52-.65-.1-1.33-.14-2.05-.14-3.07,0-5.56.97-7.45,2.9-1.9,1.93-3.36,4.34-4.39,7.22-1.03,2.88-2.17,6.86-3.42,11.95l-.47,1.94-.11-.25v.29h-5.15l-4.43-11.2-4.03,11.2h-5.15l-5.69-14.44c-.67-1.34-1.28-2.24-1.82-2.7-.54-.46-1.27-.73-2.18-.83l.25-2.56h12.56l-.04,2.56c-.53.07-1.01.26-1.44.58-.43.31-.65.76-.65,1.33,0,.17.04.38.11.65l3.71,9.47,3.1-8.5c-.48-.96-.88-1.67-1.21-2.14s-.67-.8-1.04-.99c-.37-.19-.87-.32-1.49-.4v-2.56h12.82v2.56c-.86.02-1.49.13-1.87.32-.38.19-.58.55-.58,1.08,0,.34.07.74.22,1.22l3.06,7.78c1.54-7.46,3.49-13.28,5.85-17.44,2.36-4.16,5.15-6.25,8.37-6.25,1.58,0,2.84.47,3.78,1.4Z"/>
  </g>
</svg>
