<svg viewBox="0 138 150 42" xmlns="http://www.w3.org/2000/svg" aria-label="Wellet">
  <path fill="#FFFFFF" d="M45.5,142c.94.94,1.4,2.08,1.4,3.42,0,.89-.19,1.73-.58,2.52-.65-.1-1.33-.14-2.05-.14-3.07,0-5.56.97-7.45,2.9-1.9,1.93-3.36,4.34-4.39,7.22-1.03,2.88-2.17,6.86-3.42,11.95l-.47,1.94-.11-.25v.29h-5.15l-4.43-11.2-4.03,11.2h-5.15l-5.69-14.44c-.67-1.34-1.28-2.24-1.82-2.7-.54-.46-1.27-.73-2.18-.83l.25-2.56h12.56l-.04,2.56c-.53.07-1.01.26-1.44.58-.43.31-.65.76-.65,1.33,0,.17.04.38.11.65l3.71,9.47,3.1-8.5c-.48-.96-.88-1.67-1.21-2.14s-.67-.8-1.04-.99c-.37-.19-.87-.32-1.49-.4v-2.56h12.82v2.56c-.86.02-1.49.13-1.87.32-.38.19-.58.55-.58,1.08,0,.34.07.74.22,1.22l3.06,7.78c1.54-7.46,3.49-13.28,5.85-17.44,2.36-4.16,5.15-6.25,8.37-6.25,1.58,0,2.84.47,3.78,1.4Z"/>
  <path fill="#FFFFFF" d="M57.31,168.14c-1.13,1.44-2.57,2.56-4.32,3.37-1.75.8-3.61,1.21-5.58,1.21s-3.92-.49-5.65-1.48c-1.73-.98-3.1-2.32-4.1-4.01-1.01-1.69-1.51-3.55-1.51-5.56s.5-3.87,1.51-5.56c1.01-1.69,2.38-3.03,4.1-4.01,1.73-.98,3.61-1.48,5.65-1.48,1.92,0,3.62.28,5.09.83s2.62,1.31,3.42,2.29c.8.97,1.21,2.06,1.21,3.26,0,2.62-1.68,4.46-5.04,5.54-1.49.46-3.06.68-4.72.68-1.08,0-2.24-.11-3.49-.32.02,1.13.35,2.16.99,3.1.64.94,1.46,1.67,2.47,2.21s2.05.81,3.13.81c.96,0,1.94-.2,2.93-.61,1-.41,1.82-.98,2.47-1.73l1.44,1.48ZM45.7,155.59c-.8,1.26-1.34,2.86-1.6,4.81.84.17,1.64.25,2.41.25,1.61,0,2.87-.34,3.78-1.01.91-.67,1.51-1.5,1.8-2.48.1-.29.14-.59.14-.9,0-.86-.32-1.56-.95-2.09-.64-.53-1.36-.76-2.18-.68-1.46.14-2.6.85-3.4,2.11Z"/>
  <path fill="#FFFFFF" d="M58.21,170.23c.7-.12,1.26-.52,1.69-1.21.43-.68.65-1.9.65-3.65v-14.26c0-1.18-.13-2.08-.38-2.72s-.5-1.06-.76-1.26-.71-.51-1.39-.92c.65-.84,1.61-1.47,2.9-1.89,1.28-.42,2.59-.63,3.91-.63,1.15,0,2.04.14,2.66.43v21.24c0,1.75.22,2.97.65,3.65.43.68,1,1.09,1.69,1.21l.11,1.62h-11.84l.11-1.62Z"/>
  <path fill="#FFFFFF" d="M70.85,170.23c.7-.12,1.26-.52,1.69-1.21.43-.68.65-1.9.65-3.65v-14.26c0-1.18-.13-2.08-.38-2.72s-.5-1.06-.76-1.26-.71-.51-1.39-.92c.65-.84,1.61-1.47,2.9-1.89,1.28-.42,2.59-.63,3.91-.63,1.15,0,2.04.14,2.66.43v21.24c0,1.75.22,2.97.65,3.65.43.68,1,1.09,1.69,1.21l.11,1.62h-11.84l.11-1.62Z"/>
  <path fill="#FFFFFF" d="M104.11,168.14c-1.13,1.44-2.57,2.56-4.32,3.37-1.75.8-3.61,1.21-5.58,1.21s-3.92-.49-5.65-1.48c-1.73-.98-3.1-2.32-4.1-4.01-1.01-1.69-1.51-3.55-1.51-5.56s.5-3.87,1.51-5.56c1.01-1.69,2.38-3.03,4.1-4.01,1.73-.98,3.61-1.48,5.65-1.48,1.92,0,3.62.28,5.09.83,1.48.55,2.62,1.31,3.42,2.29.8.97,1.21,2.06,1.21,3.26,0,2.62-1.68,4.46-5.04,5.54-1.49.46-3.06.68-4.72.68-1.08,0-2.24-.11-3.49-.32.02,1.13.35,2.16.99,3.1.64.94,1.46,1.67,2.47,2.21,1.01.54,2.05.81,3.13.81.96,0,1.94-.2,2.93-.61s1.82-.98,2.47-1.73l1.44,1.48ZM92.5,155.59c-.8,1.26-1.34,2.86-1.6,4.81.84.17,1.64.25,2.41.25,1.61,0,2.87-.34,3.78-1.01s1.51-1.5,1.8-2.48c.09-.29.14-.59.14-.9,0-.86-.32-1.56-.95-2.09-.64-.53-1.36-.76-2.18-.68-1.46.14-2.6.85-3.4,2.11Z"/>
  <path fill="#FFFFFF" d="M139.93,141.71c.46.5.76,1.14.86,1.81.17,1.09-.14,2.07-.91,2.95s-1.69,1.36-2.84,1.51c-.83.11-1.71.14-2.64.09-1.17-.04-2.31,0-3.43.15-1.24.16-2.36.49-3.36,1-1,.5-1.5.85-2.29,1.37-1.25.83-.64.51-2.68,1.64-1.7.75-1.02.47-2.27.96-2.92,1.15-5.84,1.04-6.2,1.21v12.12c0,.86.13,1.51.38,1.93s.58.63.99.63c.26,0,.55-.09.86-.27.31-.18.6-.43.86-.74l1.44,1.48c-.98,1.1-1.96,1.87-2.92,2.3-.96.43-2.08.65-3.35.65-1.58,0-2.89-.4-3.92-1.21-1.03-.8-1.55-1.95-1.55-3.44v-13c-.74-.07-1.58-.24-2.52-.5v-1.8c.53.12.97.18,1.33.18.96,0,1.82-.27,2.59-.81.77-.54,1.42-1.18,1.96-1.91.54-.73,1.15-1.66,1.82-2.79.48-.89.88-1.52,1.19-1.91h.83v6.8c3.33.07,5-.58,7.3-1.62,1.91-1.06,2.49-1.68,3.27-2.09,1.14-.61,2.11-.76,3.26-.88,2.04-.21,3.13.16,4.06,1.16Z"/>
</svg>
